<svg xmlns="http://www.w3.org/2000/svg" width="1000" height="1000" viewBox="0 0 1000 1000">
<defs><filter id="tight" filterUnits="userSpaceOnUse" x="-400" y="-400" width="2800" height="1800">
  <feGaussianBlur in="SourceGraphic" stdDeviation=".8" result="a"/><feGaussianBlur in="SourceGraphic" stdDeviation="2.2" result="b"/>
  <feMerge><feMergeNode in="b"/><feMergeNode in="a"/><feMergeNode in="SourceGraphic"/></feMerge></filter>
<filter id="halo" filterUnits="userSpaceOnUse" x="-400" y="-400" width="2800" height="1800">
  <feGaussianBlur in="SourceGraphic" stdDeviation="4" result="a"/><feGaussianBlur in="SourceGraphic" stdDeviation="11" result="b"/>
  <feMerge><feMergeNode in="b"/><feMergeNode in="a"/></feMerge></filter>
<radialGradient id="bg" cx="50%" cy="45%" r="75%"><stop offset="0" stop-color="#262b36"/><stop offset="1" stop-color="#0e1015"/></radialGradient>
<pattern id="dots" width="40" height="40" patternUnits="userSpaceOnUse"><circle cx="20" cy="20" r="1.6" fill="#5a6478"/></pattern>
</defs>
<g class=""><defs><radialGradient id="pbg" cx="50%" cy="50%" r="60%"><stop offset="0" stop-color="#1b2233"/><stop offset="1" stop-color="#0b0d12"/></radialGradient></defs><rect width="1000" height="1000" fill="url(#pbg)"/><path d="M 176 150 H 824 Q 850 150 850 176 V 824 Q 850 850 824 850 H 176 Q 150 850 150 824 V 176 Q 150 150 176 150 Z" fill="#141820"/><path class="halo" d="M 176 150 H 824 Q 850 150 850 176 V 824 Q 850 850 824 850 H 176 Q 150 850 150 824 V 176 Q 150 150 176 150 Z" fill="none" stroke="#3d7bff" stroke-width="6.4" stroke-linecap="round" stroke-linejoin="round" filter="url(#halo)" opacity=".55"/><path d="M 176 150 H 824 Q 850 150 850 176 V 824 Q 850 850 824 850 H 176 Q 150 850 150 824 V 176 Q 150 150 176 150 Z" fill="none" stroke="#3d7bff" stroke-width="4" stroke-linecap="round" stroke-linejoin="round" filter="url(#tight)"/><path d="M 176 150 H 824 Q 850 150 850 176 V 824 Q 850 850 824 850 H 176 Q 150 850 150 824 V 176 Q 150 150 176 150 Z" fill="none" stroke="#fff" stroke-opacity=".95" stroke-width="1.5" stroke-linecap="round" stroke-linejoin="round"/><path d="M 167 167 L 197 167 L 167 197 Z" fill="#3d7bff"/><g transform="translate(500 512) scale(1.24) translate(-500 -515)"><path class="halo" d="M 365 440 C 365 240 635 240 635 440 Z" fill="none" stroke="#3d7bff" stroke-width="14.4" stroke-linecap="round" stroke-linejoin="round" filter="url(#halo)" opacity=".55"/><path d="M 365 440 C 365 240 635 240 635 440 Z" fill="none" stroke="#3d7bff" stroke-width="9" stroke-linecap="round" stroke-linejoin="round" filter="url(#tight)"/><path d="M 365 440 C 365 240 635 240 635 440 Z" fill="none" stroke="#fff" stroke-opacity=".95" stroke-width="3.4" stroke-linecap="round" stroke-linejoin="round"/><path class="halo" d="M 392 440 L 392 468 L 272 588 L 272 640" fill="none" stroke="#3d7bff" stroke-width="11.2" stroke-linecap="round" stroke-linejoin="round" filter="url(#halo)" opacity=".55"/><path d="M 392 440 L 392 468 L 272 588 L 272 640" fill="none" stroke="#3d7bff" stroke-width="7" stroke-linecap="round" stroke-linejoin="round" filter="url(#tight)"/><path d="M 392 440 L 392 468 L 272 588 L 272 640" fill="none" stroke="#fff" stroke-opacity=".95" stroke-width="2.7" stroke-linecap="round" stroke-linejoin="round"/><circle class="halo" cx="272" cy="614.0" r="11.200000000000001" fill="#ffd000" filter="url(#halo)"/><circle cx="272" cy="614.0" r="7" fill="#ffd000" filter="url(#tight)"/><circle cx="272" cy="614.0" r="3.1" fill="#fff"/><circle class="halo" cx="272" cy="653" r="12" fill="none" stroke="#ffd000" stroke-width="9" filter="url(#halo)"/><circle cx="272" cy="653" r="12" fill="none" stroke="#ffd000" stroke-width="6" filter="url(#tight)"/><circle cx="272" cy="653" r="12" fill="none" stroke="#fff" stroke-opacity=".95" stroke-width="2.2"/><path class="halo" d="M 422 440 L 422 490 L 342 570 L 342 690" fill="none" stroke="#3d7bff" stroke-width="11.2" stroke-linecap="round" stroke-linejoin="round" filter="url(#halo)" opacity=".55"/><path d="M 422 440 L 422 490 L 342 570 L 342 690" fill="none" stroke="#3d7bff" stroke-width="7" stroke-linecap="round" stroke-linejoin="round" filter="url(#tight)"/><path d="M 422 440 L 422 490 L 342 570 L 342 690" fill="none" stroke="#fff" stroke-opacity=".95" stroke-width="2.7" stroke-linecap="round" stroke-linejoin="round"/><circle class="halo" cx="342" cy="630.0" r="11.200000000000001" fill="#ffd000" filter="url(#halo)"/><circle cx="342" cy="630.0" r="7" fill="#ffd000" filter="url(#tight)"/><circle cx="342" cy="630.0" r="3.1" fill="#fff"/><circle class="halo" cx="342" cy="703" r="12" fill="none" stroke="#ffd000" stroke-width="9" filter="url(#halo)"/><circle cx="342" cy="703" r="12" fill="none" stroke="#ffd000" stroke-width="6" filter="url(#tight)"/><circle cx="342" cy="703" r="12" fill="none" stroke="#fff" stroke-opacity=".95" stroke-width="2.2"/><path class="halo" d="M 452 440 L 452 512 L 407 557 L 407 722" fill="none" stroke="#3d7bff" stroke-width="11.2" stroke-linecap="round" stroke-linejoin="round" filter="url(#halo)" opacity=".55"/><path d="M 452 440 L 452 512 L 407 557 L 407 722" fill="none" stroke="#3d7bff" stroke-width="7" stroke-linecap="round" stroke-linejoin="round" filter="url(#tight)"/><path d="M 452 440 L 452 512 L 407 557 L 407 722" fill="none" stroke="#fff" stroke-opacity=".95" stroke-width="2.7" stroke-linecap="round" stroke-linejoin="round"/><circle class="halo" cx="407" cy="639.5" r="11.200000000000001" fill="#ffd000" filter="url(#halo)"/><circle cx="407" cy="639.5" r="7" fill="#ffd000" filter="url(#tight)"/><circle cx="407" cy="639.5" r="3.1" fill="#fff"/><circle class="halo" cx="407" cy="735" r="12" fill="none" stroke="#ffd000" stroke-width="9" filter="url(#halo)"/><circle cx="407" cy="735" r="12" fill="none" stroke="#ffd000" stroke-width="6" filter="url(#tight)"/><circle cx="407" cy="735" r="12" fill="none" stroke="#fff" stroke-opacity=".95" stroke-width="2.2"/><path class="halo" d="M 482 440 L 482 534 L 470 546 L 470 742" fill="none" stroke="#3d7bff" stroke-width="11.2" stroke-linecap="round" stroke-linejoin="round" filter="url(#halo)" opacity=".55"/><path d="M 482 440 L 482 534 L 470 546 L 470 742" fill="none" stroke="#3d7bff" stroke-width="7" stroke-linecap="round" stroke-linejoin="round" filter="url(#tight)"/><path d="M 482 440 L 482 534 L 470 546 L 470 742" fill="none" stroke="#fff" stroke-opacity=".95" stroke-width="2.7" stroke-linecap="round" stroke-linejoin="round"/><circle class="halo" cx="470" cy="644.0" r="11.200000000000001" fill="#ffd000" filter="url(#halo)"/><circle cx="470" cy="644.0" r="7" fill="#ffd000" filter="url(#tight)"/><circle cx="470" cy="644.0" r="3.1" fill="#fff"/><circle class="halo" cx="470" cy="755" r="12" fill="none" stroke="#ffd000" stroke-width="9" filter="url(#halo)"/><circle cx="470" cy="755" r="12" fill="none" stroke="#ffd000" stroke-width="6" filter="url(#tight)"/><circle cx="470" cy="755" r="12" fill="none" stroke="#fff" stroke-opacity=".95" stroke-width="2.2"/><path class="halo" d="M 518 440 L 518 534 L 530 546 L 530 742" fill="none" stroke="#3d7bff" stroke-width="11.2" stroke-linecap="round" stroke-linejoin="round" filter="url(#halo)" opacity=".55"/><path d="M 518 440 L 518 534 L 530 546 L 530 742" fill="none" stroke="#3d7bff" stroke-width="7" stroke-linecap="round" stroke-linejoin="round" filter="url(#tight)"/><path d="M 518 440 L 518 534 L 530 546 L 530 742" fill="none" stroke="#fff" stroke-opacity=".95" stroke-width="2.7" stroke-linecap="round" stroke-linejoin="round"/><circle class="halo" cx="530" cy="644.0" r="11.200000000000001" fill="#ffd000" filter="url(#halo)"/><circle cx="530" cy="644.0" r="7" fill="#ffd000" filter="url(#tight)"/><circle cx="530" cy="644.0" r="3.1" fill="#fff"/><circle class="halo" cx="530" cy="755" r="12" fill="none" stroke="#ffd000" stroke-width="9" filter="url(#halo)"/><circle cx="530" cy="755" r="12" fill="none" stroke="#ffd000" stroke-width="6" filter="url(#tight)"/><circle cx="530" cy="755" r="12" fill="none" stroke="#fff" stroke-opacity=".95" stroke-width="2.2"/><path class="halo" d="M 548 440 L 548 512 L 593 557 L 593 722" fill="none" stroke="#3d7bff" stroke-width="11.2" stroke-linecap="round" stroke-linejoin="round" filter="url(#halo)" opacity=".55"/><path d="M 548 440 L 548 512 L 593 557 L 593 722" fill="none" stroke="#3d7bff" stroke-width="7" stroke-linecap="round" stroke-linejoin="round" filter="url(#tight)"/><path d="M 548 440 L 548 512 L 593 557 L 593 722" fill="none" stroke="#fff" stroke-opacity=".95" stroke-width="2.7" stroke-linecap="round" stroke-linejoin="round"/><circle class="halo" cx="593" cy="639.5" r="11.200000000000001" fill="#ffd000" filter="url(#halo)"/><circle cx="593" cy="639.5" r="7" fill="#ffd000" filter="url(#tight)"/><circle cx="593" cy="639.5" r="3.1" fill="#fff"/><circle class="halo" cx="593" cy="735" r="12" fill="none" stroke="#ffd000" stroke-width="9" filter="url(#halo)"/><circle cx="593" cy="735" r="12" fill="none" stroke="#ffd000" stroke-width="6" filter="url(#tight)"/><circle cx="593" cy="735" r="12" fill="none" stroke="#fff" stroke-opacity=".95" stroke-width="2.2"/><path class="halo" d="M 578 440 L 578 490 L 658 570 L 658 690" fill="none" stroke="#3d7bff" stroke-width="11.2" stroke-linecap="round" stroke-linejoin="round" filter="url(#halo)" opacity=".55"/><path d="M 578 440 L 578 490 L 658 570 L 658 690" fill="none" stroke="#3d7bff" stroke-width="7" stroke-linecap="round" stroke-linejoin="round" filter="url(#tight)"/><path d="M 578 440 L 578 490 L 658 570 L 658 690" fill="none" stroke="#fff" stroke-opacity=".95" stroke-width="2.7" stroke-linecap="round" stroke-linejoin="round"/><circle class="halo" cx="658" cy="630.0" r="11.200000000000001" fill="#ffd000" filter="url(#halo)"/><circle cx="658" cy="630.0" r="7" fill="#ffd000" filter="url(#tight)"/><circle cx="658" cy="630.0" r="3.1" fill="#fff"/><circle class="halo" cx="658" cy="703" r="12" fill="none" stroke="#ffd000" stroke-width="9" filter="url(#halo)"/><circle cx="658" cy="703" r="12" fill="none" stroke="#ffd000" stroke-width="6" filter="url(#tight)"/><circle cx="658" cy="703" r="12" fill="none" stroke="#fff" stroke-opacity=".95" stroke-width="2.2"/><path class="halo" d="M 608 440 L 608 468 L 728 588 L 728 640" fill="none" stroke="#3d7bff" stroke-width="11.2" stroke-linecap="round" stroke-linejoin="round" filter="url(#halo)" opacity=".55"/><path d="M 608 440 L 608 468 L 728 588 L 728 640" fill="none" stroke="#3d7bff" stroke-width="7" stroke-linecap="round" stroke-linejoin="round" filter="url(#tight)"/><path d="M 608 440 L 608 468 L 728 588 L 728 640" fill="none" stroke="#fff" stroke-opacity=".95" stroke-width="2.7" stroke-linecap="round" stroke-linejoin="round"/><circle class="halo" cx="728" cy="614.0" r="11.200000000000001" fill="#ffd000" filter="url(#halo)"/><circle cx="728" cy="614.0" r="7" fill="#ffd000" filter="url(#tight)"/><circle cx="728" cy="614.0" r="3.1" fill="#fff"/><circle class="halo" cx="728" cy="653" r="12" fill="none" stroke="#ffd000" stroke-width="9" filter="url(#halo)"/><circle cx="728" cy="653" r="12" fill="none" stroke="#ffd000" stroke-width="6" filter="url(#tight)"/><circle cx="728" cy="653" r="12" fill="none" stroke="#fff" stroke-opacity=".95" stroke-width="2.2"/><g class="halo" filter="url(#halo)"><rect x="438" y="340" width="32" height="32" rx="5" fill="#ffd000"/><rect x="530" y="340" width="32" height="32" rx="5" fill="#ffd000"/></g><g filter="url(#tight)"><rect x="438" y="340" width="32" height="32" rx="5" fill="#ffd000"/><rect x="530" y="340" width="32" height="32" rx="5" fill="#ffd000"/></g></g></g>
</svg>