<svg xmlns="http://www.w3.org/2000/svg" width="1000" height="1000" viewBox="0 0 1000 1000"><rect x="250" y="150" width="500" height="500" rx="42.5" fill="#161c29" stroke="#3d7bff" stroke-width="10.0" stroke-linecap="round" stroke-linejoin="round"/><path d="M 280.0 180.0 h 35.0 l -35.0 35.0 Z" fill="#3d7bff"/><g transform="translate(500 403.8636363636364) scale(0.7727272727272727) translate(-500 -515)"><path d="M 365 440 C 365 240 635 240 635 440 Z" fill="#1c2640" stroke="#3d7bff" stroke-width="12" stroke-linecap="round" stroke-linejoin="round"/><path d="M 392 440 L 392 468 L 272 588 L 272 640" fill="none" stroke="#3d7bff" stroke-width="9" stroke-linecap="round" stroke-linejoin="round"/><circle cx="272" cy="614.0" r="8" fill="#ffd000"/><circle cx="272" cy="655" r="14" fill="#161c29" stroke="#ffd000" stroke-width="8" stroke-linecap="round" stroke-linejoin="round"/><path d="M 422 440 L 422 490 L 342 570 L 342 690" fill="none" stroke="#3d7bff" stroke-width="9" stroke-linecap="round" stroke-linejoin="round"/><circle cx="342" cy="630.0" r="8" fill="#ffd000"/><circle cx="342" cy="705" r="14" fill="#161c29" stroke="#ffd000" stroke-width="8" stroke-linecap="round" stroke-linejoin="round"/><path d="M 452 440 L 452 512 L 407 557 L 407 722" fill="none" stroke="#3d7bff" stroke-width="9" stroke-linecap="round" stroke-linejoin="round"/><circle cx="407" cy="639.5" r="8" fill="#ffd000"/><circle cx="407" cy="737" r="14" fill="#161c29" stroke="#ffd000" stroke-width="8" stroke-linecap="round" stroke-linejoin="round"/><path d="M 482 440 L 482 534 L 470 546 L 470 742" fill="none" stroke="#3d7bff" stroke-width="9" stroke-linecap="round" stroke-linejoin="round"/><circle cx="470" cy="644.0" r="8" fill="#ffd000"/><circle cx="470" cy="757" r="14" fill="#161c29" stroke="#ffd000" stroke-width="8" stroke-linecap="round" stroke-linejoin="round"/><path d="M 518 440 L 518 534 L 530 546 L 530 742" fill="none" stroke="#3d7bff" stroke-width="9" stroke-linecap="round" stroke-linejoin="round"/><circle cx="530" cy="644.0" r="8" fill="#ffd000"/><circle cx="530" cy="757" r="14" fill="#161c29" stroke="#ffd000" stroke-width="8" stroke-linecap="round" stroke-linejoin="round"/><path d="M 548 440 L 548 512 L 593 557 L 593 722" fill="none" stroke="#3d7bff" stroke-width="9" stroke-linecap="round" stroke-linejoin="round"/><circle cx="593" cy="639.5" r="8" fill="#ffd000"/><circle cx="593" cy="737" r="14" fill="#161c29" stroke="#ffd000" stroke-width="8" stroke-linecap="round" stroke-linejoin="round"/><path d="M 578 440 L 578 490 L 658 570 L 658 690" fill="none" stroke="#3d7bff" stroke-width="9" stroke-linecap="round" stroke-linejoin="round"/><circle cx="658" cy="630.0" r="8" fill="#ffd000"/><circle cx="658" cy="705" r="14" fill="#161c29" stroke="#ffd000" stroke-width="8" stroke-linecap="round" stroke-linejoin="round"/><path d="M 608 440 L 608 468 L 728 588 L 728 640" fill="none" stroke="#3d7bff" stroke-width="9" stroke-linecap="round" stroke-linejoin="round"/><circle cx="728" cy="614.0" r="8" fill="#ffd000"/><circle cx="728" cy="655" r="14" fill="#161c29" stroke="#ffd000" stroke-width="8" stroke-linecap="round" stroke-linejoin="round"/><rect x="436" y="338" width="36" height="36" rx="7" fill="#ffd000"/><rect x="528" y="338" width="36" height="36" rx="7" fill="#ffd000"/></g><text x="500" y="810" text-anchor="middle" font-family="JetBrains Mono, Menlo, monospace" font-weight="800" font-size="80" letter-spacing="-1.6"><tspan fill="#3d7bff">octo</tspan><tspan fill="#ffd000">maker</tspan><tspan fill="#3d7bff">_</tspan></text><text x="500" y="868" text-anchor="middle" font-family="JetBrains Mono, Menlo, monospace" font-size="24" letter-spacing="3" fill="#8d97ab">// sites &amp; apps sob medida</text></svg>